<svg xmlns="http://www.w3.org/2000/svg" width="32" height="32" viewBox="0 0 32 32"><g><path d="M16 2.88c-7.24 0-13.12 5.88-13.12 13.12 0 5.8 4.68 10.56 10.56 10.56h1.12v-7.36h-2.24v-3.2h2.24v-2.24c0-2.24 1.36-3.44 3.36-3.44.96 0 1.92.08 2.16.12v2.52h-1.36c-1.08 0-1.28.52-1.28 1.24v1.8h2.56l-.32 3.2h-2.24v7.36h1.12c5.88 0 10.56-4.76 10.56-10.56C29.12 8.76 23.24 2.88 16 2.88z" fill="#1877F2"/><path d="M22.24 20.32l.32-3.2h-2.56v-1.8c0-.72.2-1.24 1.28-1.24h1.36v-2.52c-.24-.04-1.2-.12-2.16-.12-2 0-3.36 1.2-3.36 3.44v2.24h-2.24v3.2h2.24v7.36h4.48v-7.36h2.24z" fill="#fff"/></g></svg>