<svg xmlns="http://www.w3.org/2000/svg" width="32" height="32" viewBox="0 0 32 32"><defs><radialGradient id="a" cx="0.5" cy="0.5" r="0.8"><stop offset="0%" stop-color="#fdf497"/><stop offset="45%" stop-color="#fdf497"/><stop offset="60%" stop-color="#fd5949"/><stop offset="90%" stop-color="#d6249f"/><stop offset="100%" stop-color="#285AEB"/></radialGradient></defs><rect width="32" height="32" rx="7" fill="url(#a)"/><g><path d="M16 10.4a5.6 5.6 0 1 0 0 11.2 5.6 5.6 0 0 0 0-11.2zm0 9.2a3.6 3.6 0 1 1 0-7.2 3.6 3.6 0 0 1 0 7.2zm7.2-9.44a1.28 1.28 0 1 1-2.56 0 1.28 1.28 0 0 1 2.56 0z" fill="#fff"/><path d="M22.4 8.8A3.2 3.2 0 0 1 25.6 12v8a3.2 3.2 0 0 1-3.2 3.2h-8A3.2 3.2 0 0 1 8 20V12a3.2 3.2 0 0 1 3.2-3.2h8zm0-1.6h-8A4.8 4.8 0 0 0 8 12v8a4.8 4.8 0 0 0 4.8 4.8h8a4.8 4.8 0 0 0 4.8-4.8v-8a4.8 4.8 0 0 0-4.8-4.8z" fill="#fff"/></g></svg>